<?xml version="1.0" encoding="UTF-8" standalone="no" ?>
<!DOCTYPE svg PUBLIC "-//W3C//DTD SVG 1.1//EN" "http://www.w3.org/Graphics/SVG/1.1/DTD/svg11.dtd">
<svg xmlns="http://www.w3.org/2000/svg" xmlns:xlink="http://www.w3.org/1999/xlink" version="1.1" width="1280" height="1024" viewBox="0 0 1280 1024" xml:space="preserve">
<desc>Created with Fabric.js 5.3.0</desc>
<defs>
</defs>
<g transform="matrix(1 0 0 1 640 512)" id="background-logo"  >
<rect style="stroke: none; stroke-width: 0; stroke-dasharray: none; stroke-linecap: butt; stroke-dashoffset: 0; stroke-linejoin: miter; stroke-miterlimit: 4; fill: rgb(255,255,255); fill-opacity: 0; fill-rule: nonzero; opacity: 1;"  paint-order="stroke"  x="-640" y="-512" rx="0" ry="0" width="1280" height="1024" />
</g>
<g transform="matrix(-4.013467029431917 0 0 4.013467029431917 639.6458005042546 511.84257800189096)" id="logo-logo"  >
<g style=""  paint-order="stroke"   >
		<g transform="matrix(2.426722861459189 0 0 2.4267228614591883 0.12133614307299467 0)"  >
<linearGradient id="SVGID_38_192045" gradientUnits="userSpaceOnUse" gradientTransform="matrix(0.072 0 0 -0.072 -1788.256 -1777.744)"  x1="26016.5137" y1="-25832.8047" x2="25123.873" y2="-25569.6055">
<stop offset="0%" style="stop-color:rgb(153,0,204);stop-opacity: 1"/>
<stop offset="100%" style="stop-color:rgb(255,204,0);stop-opacity: 1"/>
</linearGradient>
<path style="stroke: none; stroke-width: 1; stroke-dasharray: none; stroke-linecap: butt; stroke-dashoffset: 0; stroke-linejoin: miter; stroke-miterlimit: 4; fill: url(#SVGID_38_192045); fill-rule: evenodd; opacity: 1;"  paint-order="stroke"  transform=" translate(-72.03944273009162, -71.95728310680377)" d="M 101 58.4 L 58 33.5 C 47.7 27.6 34.8 35.1 34.9 46.9 L 34.9 97.1 C 34.9 108.89999999999999 47.8 116.3 58 110.39999999999999 L 101.6 85.29999999999998 C 112 79.3 111.6 64 101 58.4 L 101 58.4 z" stroke-linecap="round" />
</g>
		<g transform="matrix(2.426722861459189 0 0 2.4267228614591883 -33.827865446017654 -7.853904987857192)"  >
<linearGradient id="SVGID_39_192046" gradientUnits="userSpaceOnUse" gradientTransform="matrix(0.072 0 0 -0.072 -1788.256 -1777.744)"  x1="25991.3223" y1="-25949.7402" x2="24959.6016" y2="-25334.791">
<stop offset="0%" style="stop-color:rgb(153,0,204);stop-opacity: 1"/>
<stop offset="100%" style="stop-color:rgb(255,204,0);stop-opacity: 1"/>
</linearGradient>
<path style="stroke: none; stroke-width: 1; stroke-dasharray: none; stroke-linecap: butt; stroke-dashoffset: 0; stroke-linejoin: miter; stroke-miterlimit: 4; fill: url(#SVGID_39_192046); fill-rule: evenodd; opacity: 1;"  paint-order="stroke"  transform=" translate(-58.049711093131236, -68.72085874513002)" d="M 80.8 46.7 L 57.9 33.5 C 47.599999999999994 27.6 34.7 35.1 34.8 46.9 L 34.8 97.1 C 34.8 100.5 35.9 103.6 37.699999999999996 106 C 62.5 101.7 81.3 80.1 81.3 54.1 C 81.3 51.6 81.1 49.2 80.8 46.7 z" stroke-linecap="round" />
</g>
		<g transform="matrix(2.426722861459189 0 0 2.4267228614591883 -48.994883330137554 -39.037293757607756)"  >
<linearGradient id="SVGID_40_192047" gradientUnits="userSpaceOnUse" gradientTransform="matrix(0.072 0 0 -0.072 -1788.256 -1777.744)"  x1="25912.2324" y1="-25734.375" x2="24952.584" y2="-25166.7148">
<stop offset="0%" style="stop-color:rgb(153,0,204);stop-opacity: 1"/>
<stop offset="100%" style="stop-color:rgb(255,204,0);stop-opacity: 1"/>
</linearGradient>
<path style="stroke: none; stroke-width: 1; stroke-dasharray: none; stroke-linecap: butt; stroke-dashoffset: 0; stroke-linejoin: miter; stroke-miterlimit: 4; fill: url(#SVGID_40_192047); fill-rule: evenodd; opacity: 1;"  paint-order="stroke"  transform=" translate(-51.79971109313124, -55.87085874513001)" d="M 68.7 39.8 L 58 33.599999999999994 C 47.7 27.699999999999996 34.8 35.199999999999996 34.9 46.99999999999999 L 34.9 80.19999999999999 C 52.4 74 65.6 58.6 68.7 39.8 L 68.7 39.8 z" stroke-linecap="round" />
</g>
		<g transform="matrix(2.426722861459189 0 0 2.4267228614591883 0.18592582201154073 0.3061561232334782)"  >
<path style="stroke: none; stroke-width: 1; stroke-dasharray: none; stroke-linecap: butt; stroke-dashoffset: 0; stroke-linejoin: miter; stroke-miterlimit: 4; fill: rgb(250,250,250); fill-rule: evenodd; opacity: 1;"  paint-order="stroke"  transform=" translate(-72.0660587396757, -72.08344342288098)" d="M 52.3 43.3 L 95.6 68.3 C 98 69.5 98.6 72.5 97.19999999999999 74.5 C 96.29999999999998 75.8 94.19999999999999 75.9 92.29999999999998 76.1 L 77.29999999999998 78 C 76.49999999999999 78.1 75.89999999999998 78 75.79999999999998 78.8 L 74.49999999999999 86.8 C 74.39999999999999 87.3 74.29999999999998 87.39999999999999 73.89999999999999 87.6 L 73.89999999999999 87.6 L 53.89999999999999 52.99999999999999 L 61.79999999999999 76 L 64.79999999999998 84.7 L 58.59999999999998 92.9 L 54.69999999999998 98 C 53.59999999999998 99.5 52.399999999999984 101.3 50.79999999999998 101.4 C 48.399999999999984 101.7 45.999999999999986 99.60000000000001 46.19999999999998 97 L 46.19999999999998 47 C 46.1 43.7 49.5 41.7 52.3 43.3 L 52.3 43.3 z" stroke-linecap="round" />
</g>
		<g transform="matrix(2.426722861459189 0 0 2.4267228614591883 0.06403081754899631 0.8678461601839444)"  >
<path style="stroke: none; stroke-width: 1; stroke-dasharray: none; stroke-linecap: butt; stroke-dashoffset: 0; stroke-linejoin: miter; stroke-miterlimit: 4; fill: rgb(230,230,230); fill-rule: evenodd; opacity: 1;"  paint-order="stroke"  transform=" translate(-72.0158284449855, -72.31490373747691)" d="M 52.3 43.3 L 95.6 68.3 C 98 69.5 98.6 72.5 97.19999999999999 74.5 C 96.29999999999998 75.8 94.19999999999999 75.9 92.29999999999998 76.1 L 52.3 43.3 L 52.3 43.3 z M 46.1 46.9 L 46.1 96.9 C 45.9 99.60000000000001 48.2 101.60000000000001 50.7 101.30000000000001 C 52.300000000000004 101.10000000000001 53.400000000000006 99.4 54.6 97.9 C 54.5 97.9 46.1 46.9 46.1 46.9 z" stroke-linecap="round" />
</g>
</g>
</g>
</svg>